<mxfile host="app.diagrams.net" agent="Mozilla/5.0 (Windows NT 10.0; Win64; x64) AppleWebKit/537.36 (KHTML, like Gecko) Chrome/128.0.0.0 Safari/537.36" version="24.7.7">
  <diagram name="페이지-1" id="0OXIUgAizJ1hu2dsmJTp">
    <mxGraphModel dx="2577" dy="2097" grid="1" gridSize="10" guides="1" tooltips="1" connect="1" arrows="0" fold="1" page="1" pageScale="1" pageWidth="827" pageHeight="1169" math="0" shadow="0">
      <root>
        <mxCell id="0" />
        <mxCell id="1" parent="0" />
        <mxCell id="CziFLt2wX7d5tEqTFT7S-56" style="rounded=0;orthogonalLoop=1;jettySize=auto;html=1;exitX=1;exitY=0.5;exitDx=0;exitDy=0;endArrow=ERzeroToMany;endFill=0;startArrow=ERone;startFill=0;" edge="1" parent="1" source="CziFLt2wX7d5tEqTFT7S-4" target="CziFLt2wX7d5tEqTFT7S-55">
          <mxGeometry relative="1" as="geometry" />
        </mxCell>
        <mxCell id="CziFLt2wX7d5tEqTFT7S-4" value="&lt;font style=&quot;font-size: 25px;&quot;&gt;회원&lt;/font&gt;" style="whiteSpace=wrap;html=1;aspect=fixed;" vertex="1" parent="1">
          <mxGeometry x="270" y="220" width="100" height="100" as="geometry" />
        </mxCell>
        <mxCell id="CziFLt2wX7d5tEqTFT7S-5" value="&lt;u&gt;&lt;font style=&quot;font-size: 19px;&quot;&gt;ID&lt;/font&gt;&lt;/u&gt;" style="ellipse;whiteSpace=wrap;html=1;aspect=fixed;" vertex="1" parent="1">
          <mxGeometry x="170" y="110" width="60" height="60" as="geometry" />
        </mxCell>
        <mxCell id="CziFLt2wX7d5tEqTFT7S-6" value="&lt;font style=&quot;font-size: 19px;&quot;&gt;PW&lt;/font&gt;" style="ellipse;whiteSpace=wrap;html=1;aspect=fixed;" vertex="1" parent="1">
          <mxGeometry x="120" y="220" width="60" height="60" as="geometry" />
        </mxCell>
        <mxCell id="CziFLt2wX7d5tEqTFT7S-7" value="&lt;font style=&quot;font-size: 19px;&quot;&gt;email&lt;/font&gt;" style="ellipse;whiteSpace=wrap;html=1;aspect=fixed;" vertex="1" parent="1">
          <mxGeometry x="275" y="90" width="60" height="60" as="geometry" />
        </mxCell>
        <mxCell id="CziFLt2wX7d5tEqTFT7S-14" style="rounded=0;orthogonalLoop=1;jettySize=auto;html=1;exitX=0;exitY=1;exitDx=0;exitDy=0;entryX=1;entryY=0;entryDx=0;entryDy=0;endArrow=none;endFill=0;" edge="1" parent="1" source="CziFLt2wX7d5tEqTFT7S-8" target="CziFLt2wX7d5tEqTFT7S-4">
          <mxGeometry relative="1" as="geometry" />
        </mxCell>
        <mxCell id="CziFLt2wX7d5tEqTFT7S-8" value="&lt;font style=&quot;font-size: 18px;&quot;&gt;name&lt;/font&gt;&lt;div style=&quot;font-size: 18px;&quot;&gt;&lt;br&gt;&lt;/div&gt;" style="ellipse;whiteSpace=wrap;html=1;aspect=fixed;" vertex="1" parent="1">
          <mxGeometry x="370" y="120" width="60" height="60" as="geometry" />
        </mxCell>
        <mxCell id="CziFLt2wX7d5tEqTFT7S-10" style="rounded=0;orthogonalLoop=1;jettySize=auto;html=1;entryX=0;entryY=0.444;entryDx=0;entryDy=0;entryPerimeter=0;endArrow=none;endFill=0;" edge="1" parent="1" target="CziFLt2wX7d5tEqTFT7S-4">
          <mxGeometry relative="1" as="geometry">
            <mxPoint x="170" y="240" as="sourcePoint" />
          </mxGeometry>
        </mxCell>
        <mxCell id="CziFLt2wX7d5tEqTFT7S-11" style="rounded=0;orthogonalLoop=1;jettySize=auto;html=1;entryX=0.004;entryY=0.046;entryDx=0;entryDy=0;entryPerimeter=0;endArrow=none;endFill=0;" edge="1" parent="1" source="CziFLt2wX7d5tEqTFT7S-5" target="CziFLt2wX7d5tEqTFT7S-4">
          <mxGeometry relative="1" as="geometry" />
        </mxCell>
        <mxCell id="CziFLt2wX7d5tEqTFT7S-12" style="rounded=0;orthogonalLoop=1;jettySize=auto;html=1;endArrow=none;endFill=0;" edge="1" parent="1" source="CziFLt2wX7d5tEqTFT7S-7" target="CziFLt2wX7d5tEqTFT7S-4">
          <mxGeometry relative="1" as="geometry" />
        </mxCell>
        <mxCell id="CziFLt2wX7d5tEqTFT7S-38" style="rounded=0;orthogonalLoop=1;jettySize=auto;html=1;exitX=0;exitY=0;exitDx=0;exitDy=0;endArrow=ERone;endFill=0;startArrow=ERzeroToMany;startFill=0;" edge="1" parent="1" source="CziFLt2wX7d5tEqTFT7S-18" target="CziFLt2wX7d5tEqTFT7S-4">
          <mxGeometry relative="1" as="geometry" />
        </mxCell>
        <mxCell id="CziFLt2wX7d5tEqTFT7S-41" style="rounded=0;orthogonalLoop=1;jettySize=auto;html=1;exitX=0;exitY=0.5;exitDx=0;exitDy=0;entryX=1;entryY=0.5;entryDx=0;entryDy=0;startArrow=ERone;startFill=0;endArrow=ERzeroToMany;endFill=0;" edge="1" parent="1" source="CziFLt2wX7d5tEqTFT7S-18" target="CziFLt2wX7d5tEqTFT7S-27">
          <mxGeometry relative="1" as="geometry" />
        </mxCell>
        <mxCell id="CziFLt2wX7d5tEqTFT7S-18" value="&lt;span style=&quot;font-size: 25px;&quot;&gt;게시글&lt;/span&gt;" style="whiteSpace=wrap;html=1;aspect=fixed;" vertex="1" parent="1">
          <mxGeometry x="610" y="550" width="130" height="130" as="geometry" />
        </mxCell>
        <mxCell id="CziFLt2wX7d5tEqTFT7S-37" style="rounded=0;orthogonalLoop=1;jettySize=auto;html=1;exitX=0;exitY=0;exitDx=0;exitDy=0;entryX=1;entryY=1;entryDx=0;entryDy=0;endArrow=none;endFill=0;" edge="1" parent="1" source="CziFLt2wX7d5tEqTFT7S-19" target="CziFLt2wX7d5tEqTFT7S-18">
          <mxGeometry relative="1" as="geometry" />
        </mxCell>
        <mxCell id="CziFLt2wX7d5tEqTFT7S-19" value="&lt;font style=&quot;font-size: 19px;&quot;&gt;title&lt;/font&gt;" style="ellipse;whiteSpace=wrap;html=1;aspect=fixed;" vertex="1" parent="1">
          <mxGeometry x="810" y="727.5" width="60" height="60" as="geometry" />
        </mxCell>
        <mxCell id="CziFLt2wX7d5tEqTFT7S-20" value="&lt;font style=&quot;font-size: 19px;&quot;&gt;content&lt;/font&gt;" style="ellipse;whiteSpace=wrap;html=1;aspect=fixed;" vertex="1" parent="1">
          <mxGeometry x="880" y="595" width="60" height="60" as="geometry" />
        </mxCell>
        <mxCell id="CziFLt2wX7d5tEqTFT7S-21" value="&lt;u&gt;&lt;font style=&quot;font-size: 19px;&quot;&gt;bno&lt;/font&gt;&lt;/u&gt;" style="ellipse;whiteSpace=wrap;html=1;aspect=fixed;" vertex="1" parent="1">
          <mxGeometry x="670" y="380" width="60" height="60" as="geometry" />
        </mxCell>
        <mxCell id="CziFLt2wX7d5tEqTFT7S-22" style="rounded=0;orthogonalLoop=1;jettySize=auto;html=1;exitX=0;exitY=1;exitDx=0;exitDy=0;entryX=1;entryY=0;entryDx=0;entryDy=0;endArrow=none;endFill=0;" edge="1" parent="1" source="CziFLt2wX7d5tEqTFT7S-23" target="CziFLt2wX7d5tEqTFT7S-18">
          <mxGeometry relative="1" as="geometry" />
        </mxCell>
        <mxCell id="CziFLt2wX7d5tEqTFT7S-23" value="&lt;div&gt;&lt;font style=&quot;font-size: 18px;&quot;&gt;writer&lt;/font&gt;&lt;/div&gt;" style="ellipse;whiteSpace=wrap;html=1;aspect=fixed;" vertex="1" parent="1">
          <mxGeometry x="850" y="430" width="60" height="60" as="geometry" />
        </mxCell>
        <mxCell id="CziFLt2wX7d5tEqTFT7S-26" style="rounded=0;orthogonalLoop=1;jettySize=auto;html=1;endArrow=none;endFill=0;" edge="1" parent="1" source="CziFLt2wX7d5tEqTFT7S-21" target="CziFLt2wX7d5tEqTFT7S-18">
          <mxGeometry relative="1" as="geometry" />
        </mxCell>
        <mxCell id="CziFLt2wX7d5tEqTFT7S-27" value="&lt;span style=&quot;font-size: 25px;&quot;&gt;댓글&lt;/span&gt;" style="whiteSpace=wrap;html=1;aspect=fixed;" vertex="1" parent="1">
          <mxGeometry x="-120" y="645" width="105" height="105" as="geometry" />
        </mxCell>
        <mxCell id="CziFLt2wX7d5tEqTFT7S-28" value="&lt;font style=&quot;font-size: 20px;&quot;&gt;email&lt;/font&gt;" style="ellipse;whiteSpace=wrap;html=1;aspect=fixed;" vertex="1" parent="1">
          <mxGeometry x="-220" y="535" width="60" height="60" as="geometry" />
        </mxCell>
        <mxCell id="CziFLt2wX7d5tEqTFT7S-29" value="&lt;font style=&quot;font-size: 20px;&quot;&gt;content&lt;/font&gt;" style="ellipse;whiteSpace=wrap;html=1;aspect=fixed;" vertex="1" parent="1">
          <mxGeometry x="-240" y="667.5" width="60" height="60" as="geometry" />
        </mxCell>
        <mxCell id="CziFLt2wX7d5tEqTFT7S-30" value="&lt;font style=&quot;font-size: 18px;&quot;&gt;writer&lt;/font&gt;" style="ellipse;whiteSpace=wrap;html=1;aspect=fixed;" vertex="1" parent="1">
          <mxGeometry x="-60" y="475" width="60" height="60" as="geometry" />
        </mxCell>
        <mxCell id="CziFLt2wX7d5tEqTFT7S-45" style="rounded=0;orthogonalLoop=1;jettySize=auto;html=1;exitX=1;exitY=0;exitDx=0;exitDy=0;endArrow=none;endFill=0;" edge="1" parent="1" source="CziFLt2wX7d5tEqTFT7S-32">
          <mxGeometry relative="1" as="geometry">
            <mxPoint x="-130" y="740" as="targetPoint" />
          </mxGeometry>
        </mxCell>
        <mxCell id="CziFLt2wX7d5tEqTFT7S-32" value="&lt;u&gt;&lt;font style=&quot;font-size: 21px;&quot;&gt;rno&lt;/font&gt;&lt;/u&gt;" style="ellipse;whiteSpace=wrap;html=1;aspect=fixed;" vertex="1" parent="1">
          <mxGeometry x="-260" y="800" width="60" height="60" as="geometry" />
        </mxCell>
        <mxCell id="CziFLt2wX7d5tEqTFT7S-33" style="rounded=0;orthogonalLoop=1;jettySize=auto;html=1;entryX=0;entryY=0.444;entryDx=0;entryDy=0;entryPerimeter=0;endArrow=none;endFill=0;" edge="1" parent="1" source="CziFLt2wX7d5tEqTFT7S-29" target="CziFLt2wX7d5tEqTFT7S-27">
          <mxGeometry relative="1" as="geometry" />
        </mxCell>
        <mxCell id="CziFLt2wX7d5tEqTFT7S-34" style="rounded=0;orthogonalLoop=1;jettySize=auto;html=1;entryX=0.004;entryY=0.046;entryDx=0;entryDy=0;entryPerimeter=0;endArrow=none;endFill=0;" edge="1" parent="1" source="CziFLt2wX7d5tEqTFT7S-28" target="CziFLt2wX7d5tEqTFT7S-27">
          <mxGeometry relative="1" as="geometry" />
        </mxCell>
        <mxCell id="CziFLt2wX7d5tEqTFT7S-35" style="rounded=0;orthogonalLoop=1;jettySize=auto;html=1;endArrow=none;endFill=0;" edge="1" parent="1" source="CziFLt2wX7d5tEqTFT7S-30" target="CziFLt2wX7d5tEqTFT7S-27">
          <mxGeometry relative="1" as="geometry" />
        </mxCell>
        <mxCell id="CziFLt2wX7d5tEqTFT7S-39" style="rounded=0;orthogonalLoop=1;jettySize=auto;html=1;exitX=0;exitY=0.5;exitDx=0;exitDy=0;entryX=1;entryY=0.577;entryDx=0;entryDy=0;entryPerimeter=0;endArrow=none;endFill=0;" edge="1" parent="1" source="CziFLt2wX7d5tEqTFT7S-20" target="CziFLt2wX7d5tEqTFT7S-18">
          <mxGeometry relative="1" as="geometry" />
        </mxCell>
        <mxCell id="CziFLt2wX7d5tEqTFT7S-40" value="&lt;font style=&quot;font-size: 17px;&quot;&gt;쓰다&lt;/font&gt;" style="rhombus;whiteSpace=wrap;html=1;" vertex="1" parent="1">
          <mxGeometry x="414" y="380" width="90" height="60" as="geometry" />
        </mxCell>
        <mxCell id="CziFLt2wX7d5tEqTFT7S-42" value="&lt;span style=&quot;font-size: 17px;&quot;&gt;포함&lt;/span&gt;" style="rhombus;whiteSpace=wrap;html=1;" vertex="1" parent="1">
          <mxGeometry x="260" y="630" width="90" height="60" as="geometry" />
        </mxCell>
        <mxCell id="CziFLt2wX7d5tEqTFT7S-44" style="rounded=0;orthogonalLoop=1;jettySize=auto;html=1;exitX=0;exitY=1;exitDx=0;exitDy=0;entryX=1.011;entryY=0.069;entryDx=0;entryDy=0;entryPerimeter=0;endArrow=ERzeroToMany;endFill=0;startArrow=ERone;startFill=0;" edge="1" parent="1" source="CziFLt2wX7d5tEqTFT7S-4" target="CziFLt2wX7d5tEqTFT7S-27">
          <mxGeometry relative="1" as="geometry" />
        </mxCell>
        <mxCell id="CziFLt2wX7d5tEqTFT7S-46" value="&lt;font style=&quot;font-size: 25px;&quot;&gt;강의&lt;/font&gt;" style="whiteSpace=wrap;html=1;aspect=fixed;" vertex="1" parent="1">
          <mxGeometry x="790" y="110" width="130" height="130" as="geometry" />
        </mxCell>
        <mxCell id="CziFLt2wX7d5tEqTFT7S-51" style="edgeStyle=orthogonalEdgeStyle;rounded=0;orthogonalLoop=1;jettySize=auto;html=1;exitX=0.5;exitY=1;exitDx=0;exitDy=0;endArrow=classic;endFill=1;" edge="1" parent="1" source="CziFLt2wX7d5tEqTFT7S-47" target="CziFLt2wX7d5tEqTFT7S-46">
          <mxGeometry relative="1" as="geometry" />
        </mxCell>
        <mxCell id="CziFLt2wX7d5tEqTFT7S-47" value="&lt;font style=&quot;font-size: 19px;&quot;&gt;&lt;u&gt;lec_noo&lt;/u&gt;&lt;/font&gt;&lt;div&gt;&lt;br&gt;&lt;/div&gt;" style="ellipse;whiteSpace=wrap;html=1;aspect=fixed;" vertex="1" parent="1">
          <mxGeometry x="810" y="-30" width="90" height="90" as="geometry" />
        </mxCell>
        <mxCell id="CziFLt2wX7d5tEqTFT7S-52" style="rounded=0;orthogonalLoop=1;jettySize=auto;html=1;exitX=0;exitY=0.5;exitDx=0;exitDy=0;endArrow=none;endFill=0;" edge="1" parent="1" source="CziFLt2wX7d5tEqTFT7S-48" target="CziFLt2wX7d5tEqTFT7S-46">
          <mxGeometry relative="1" as="geometry" />
        </mxCell>
        <mxCell id="CziFLt2wX7d5tEqTFT7S-48" value="&lt;div&gt;&lt;span style=&quot;font-size: 19px;&quot;&gt;title&lt;/span&gt;&lt;/div&gt;" style="ellipse;whiteSpace=wrap;html=1;aspect=fixed;" vertex="1" parent="1">
          <mxGeometry x="970" y="140" width="90" height="90" as="geometry" />
        </mxCell>
        <mxCell id="CziFLt2wX7d5tEqTFT7S-53" style="rounded=0;orthogonalLoop=1;jettySize=auto;html=1;exitX=0.5;exitY=0;exitDx=0;exitDy=0;entryX=0.5;entryY=1;entryDx=0;entryDy=0;endArrow=classic;endFill=1;" edge="1" parent="1" source="CziFLt2wX7d5tEqTFT7S-49" target="CziFLt2wX7d5tEqTFT7S-46">
          <mxGeometry relative="1" as="geometry" />
        </mxCell>
        <mxCell id="CziFLt2wX7d5tEqTFT7S-49" value="&lt;div&gt;&lt;span style=&quot;font-size: 19px;&quot;&gt;content&lt;/span&gt;&lt;/div&gt;" style="ellipse;whiteSpace=wrap;html=1;aspect=fixed;" vertex="1" parent="1">
          <mxGeometry x="810" y="290" width="90" height="90" as="geometry" />
        </mxCell>
        <mxCell id="CziFLt2wX7d5tEqTFT7S-57" style="rounded=0;orthogonalLoop=1;jettySize=auto;html=1;exitX=1;exitY=0.5;exitDx=0;exitDy=0;endArrow=ERone;endFill=0;startArrow=ERzeroToMany;startFill=0;" edge="1" parent="1" source="CziFLt2wX7d5tEqTFT7S-55" target="CziFLt2wX7d5tEqTFT7S-46">
          <mxGeometry relative="1" as="geometry" />
        </mxCell>
        <mxCell id="CziFLt2wX7d5tEqTFT7S-63" style="rounded=0;orthogonalLoop=1;jettySize=auto;html=1;exitX=1;exitY=0;exitDx=0;exitDy=0;entryX=0.5;entryY=1;entryDx=0;entryDy=0;endArrow=none;endFill=0;" edge="1" parent="1" source="CziFLt2wX7d5tEqTFT7S-55" target="CziFLt2wX7d5tEqTFT7S-62">
          <mxGeometry relative="1" as="geometry" />
        </mxCell>
        <mxCell id="CziFLt2wX7d5tEqTFT7S-55" value="&lt;span style=&quot;font-size: 25px;&quot;&gt;수강&lt;/span&gt;&lt;div&gt;&lt;span style=&quot;font-size: 25px;&quot;&gt;신청&lt;/span&gt;&lt;/div&gt;" style="whiteSpace=wrap;html=1;aspect=fixed;" vertex="1" parent="1">
          <mxGeometry x="540" y="180" width="100" height="100" as="geometry" />
        </mxCell>
        <mxCell id="CziFLt2wX7d5tEqTFT7S-59" style="rounded=0;orthogonalLoop=1;jettySize=auto;html=1;exitX=0.5;exitY=1;exitDx=0;exitDy=0;entryX=0.5;entryY=0;entryDx=0;entryDy=0;endArrow=none;endFill=0;" edge="1" parent="1" source="CziFLt2wX7d5tEqTFT7S-58" target="CziFLt2wX7d5tEqTFT7S-55">
          <mxGeometry relative="1" as="geometry" />
        </mxCell>
        <mxCell id="CziFLt2wX7d5tEqTFT7S-58" value="&lt;div style=&quot;font-size: 18px;&quot;&gt;&lt;u&gt;class_no&lt;/u&gt;&lt;/div&gt;" style="ellipse;whiteSpace=wrap;html=1;aspect=fixed;" vertex="1" parent="1">
          <mxGeometry x="560" y="10" width="80" height="80" as="geometry" />
        </mxCell>
        <mxCell id="CziFLt2wX7d5tEqTFT7S-61" style="rounded=0;orthogonalLoop=1;jettySize=auto;html=1;exitX=1;exitY=1;exitDx=0;exitDy=0;entryX=0;entryY=0;entryDx=0;entryDy=0;endArrow=none;endFill=0;" edge="1" parent="1" source="CziFLt2wX7d5tEqTFT7S-60" target="CziFLt2wX7d5tEqTFT7S-55">
          <mxGeometry relative="1" as="geometry" />
        </mxCell>
        <mxCell id="CziFLt2wX7d5tEqTFT7S-60" value="&lt;u&gt;&lt;font style=&quot;font-size: 19px;&quot;&gt;ID&lt;/font&gt;&lt;/u&gt;" style="ellipse;whiteSpace=wrap;html=1;aspect=fixed;" vertex="1" parent="1">
          <mxGeometry x="450" y="30" width="60" height="60" as="geometry" />
        </mxCell>
        <mxCell id="CziFLt2wX7d5tEqTFT7S-62" value="&lt;font style=&quot;font-size: 19px;&quot;&gt;lec_noo&lt;/font&gt;&lt;div&gt;&lt;br&gt;&lt;/div&gt;" style="ellipse;whiteSpace=wrap;html=1;aspect=fixed;" vertex="1" parent="1">
          <mxGeometry x="670" y="60" width="70" height="70" as="geometry" />
        </mxCell>
        <mxCell id="CziFLt2wX7d5tEqTFT7S-65" style="rounded=0;orthogonalLoop=1;jettySize=auto;html=1;exitX=0.5;exitY=0;exitDx=0;exitDy=0;entryX=0.5;entryY=1;entryDx=0;entryDy=0;endArrow=none;endFill=0;" edge="1" parent="1" source="CziFLt2wX7d5tEqTFT7S-64" target="CziFLt2wX7d5tEqTFT7S-27">
          <mxGeometry relative="1" as="geometry" />
        </mxCell>
        <mxCell id="CziFLt2wX7d5tEqTFT7S-64" value="&lt;u&gt;&lt;font style=&quot;font-size: 19px;&quot;&gt;bno&lt;/font&gt;&lt;/u&gt;" style="ellipse;whiteSpace=wrap;html=1;aspect=fixed;" vertex="1" parent="1">
          <mxGeometry x="-97.5" y="820" width="60" height="60" as="geometry" />
        </mxCell>
      </root>
    </mxGraphModel>
  </diagram>
</mxfile>
